<svg id="Слой_1" data-name="Слой 1" xmlns="http://www.w3.org/2000/svg" viewBox="0 0 389.83 65.48"><defs><style>.cls-1{fill:#fff;}</style></defs><title>Монтажная область 1</title><path class="cls-1" d="M87.88,20.11a20.91,20.91,0,0,0-5.58.75L76,5.23H88.41a3.7,3.7,0,1,1,0,7.4H81.78l2,5.23h4.6A8.93,8.93,0,1,0,88.41,0H68.19L84.06,39.06a4.29,4.29,0,0,0-.59,2.16,4.41,4.41,0,1,0,5.36-4.3L84.29,25.76A15.88,15.88,0,1,1,72,41.32v-.47H45.53l2.12,5.22h19.7a21.1,21.1,0,1,0,20.53-26Z"/><polygon class="cls-1" points="137.41 40.85 124.73 40.85 115.45 17.86 128.13 17.86 126.01 12.64 113.33 12.64 110.32 5.22 128.22 5.22 126.11 0 102.98 0 121.62 46.07 139.52 46.07 137.41 40.85"/><polygon class="cls-1" points="64.37 17.86 62.26 12.64 19.48 12.64 21.6 17.86 64.37 17.86"/><polygon class="cls-1" points="0 12.64 2.11 17.86 9.06 17.86 6.94 12.64 0 12.64"/><polygon class="cls-1" points="15.23 26.67 17.34 31.9 24.29 31.9 22.17 26.67 15.23 26.67"/><polygon class="cls-1" points="67.04 26.67 33.22 26.67 35.33 31.9 69.15 31.9 67.04 26.67"/><polygon class="cls-1" points="48.62 5.22 46.51 0 29.71 0 31.82 5.22 48.62 5.22"/><polygon class="cls-1" points="156.66 0 133.53 0 150.06 40.85 143.14 40.85 145.26 46.07 157.4 46.07 140.87 5.22 153.55 5.22 170.07 46.07 175.3 46.07 156.66 0"/><polygon class="cls-1" points="233.72 5.22 250.24 46.07 255.47 46.07 255.47 46.07 268.28 46.07 266.17 40.85 253.35 40.85 236.83 0 220.62 0 228.11 30.64 210.82 0 194.61 0 211.13 40.85 185.72 40.85 171.31 5.22 183.99 5.22 196.9 37.13 202.12 37.13 187.1 0 163.97 0 182.61 46.07 218.47 46.07 201.95 5.22 208.48 5.22 231.53 46.07 237.18 46.07 227.19 5.22 233.72 5.22"/><polygon class="cls-1" points="315.13 40.85 296.74 40.85 282.33 5.22 300.16 5.22 298.04 0 274.99 0 293.63 46.07 317.24 46.07 315.13 40.85"/><polygon class="cls-1" points="319.18 5.22 352.04 5.22 349.92 0 305.34 0 307.45 5.22 313.95 5.22 330.48 46.07 335.7 46.07 319.18 5.22"/><path class="cls-1" d="M380.44,0H357.32L376,46.07h5.23l-9.27-22.91h12.68l0,.05h5.22ZM369.8,17.94,364.65,5.23h12.68l5.14,12.71Z"/><path class="cls-1" d="M244.42,0l15,37.13h5.22l-7.78-19.27h12.68L281,46.07h5.22L267.55,0Zm10.35,12.64-3-7.41h12.67l3,7.41Z"/><polygon class="cls-1" points="349.3 12.64 337.15 12.64 335.6 8.85 330.37 8.85 345.43 46.07 368.56 46.07 366.45 40.85 348.54 40.85 339.26 17.86 351.42 17.86 349.3 12.64"/><path class="cls-1" d="M132,58.15l-1.37,3c-.14.32-.29.7-.29.7h0s-.15-.39-.3-.7l-1.33-3h-1.12l-.46,5.25h1l.23-3.12c0-.31,0-.9,0-.9h0l.34.77,1.24,2.62h.86L132,60.14c.19-.4.33-.76.33-.76h0s0,.59,0,.9l.23,3.12h1l-.45-5.25Z"/><path class="cls-1" d="M139.62,58a3.34,3.34,0,0,0-2,.62l.4.74a2.59,2.59,0,0,1,1.47-.51A1,1,0,0,1,140.69,60v.1h-.27c-1.09,0-3.14.19-3.14,1.84A1.62,1.62,0,0,0,139,63.53a2,2,0,0,0,1.72-1.07h0a2.61,2.61,0,0,0,0,.41v.53h.94V60.08A1.86,1.86,0,0,0,139.62,58Zm1.07,3a1.58,1.58,0,0,1-1.41,1.67.89.89,0,0,1-1-.84c0-1,1.39-1,2.14-1h.26Z"/><path class="cls-1" d="M148.52,62.65a1.82,1.82,0,0,1-1.86-1.88,1.8,1.8,0,0,1,1.83-1.87,2.13,2.13,0,0,1,1.45.6l.48-.71a2.8,2.8,0,0,0-2-.76,2.75,2.75,0,1,0,0,5.5,3,3,0,0,0,2.1-.84l-.4-.74A2.38,2.38,0,0,1,148.52,62.65Z"/><polygon class="cls-1" points="153.87 59.01 155.69 59.01 155.69 63.4 156.69 63.4 156.69 59.01 158.53 59.01 158.53 58.15 153.87 58.15 153.87 59.01"/><path class="cls-1" d="M164.43,58a2.58,2.58,0,0,0-2.64,2.75,2.69,2.69,0,0,0,2.79,2.75,3.14,3.14,0,0,0,2-.75l-.43-.74a2.32,2.32,0,0,1-1.54.61,1.73,1.73,0,0,1-1.81-1.74h3.82a3.13,3.13,0,0,0,0-.42A2.24,2.24,0,0,0,164.43,58Zm-1.56,2.16a1.53,1.53,0,0,1,1.54-1.39,1.28,1.28,0,0,1,1.27,1.39Z"/><path class="cls-1" d="M173.4,58a1.91,1.91,0,0,0-1.76,1h0a1.89,1.89,0,0,0,0-.39v-.47h-.94v7.33h1V63.09a2.46,2.46,0,0,0,0-.46h0a1.93,1.93,0,0,0,1.63.9,2.45,2.45,0,0,0,2.37-2.75C175.7,59.15,174.82,58,173.4,58Zm-.23,4.62a1.65,1.65,0,0,1-1.48-1.85c0-1.33.72-1.89,1.51-1.89s1.49.74,1.49,1.88S174,62.65,173.17,62.65Z"/><path class="cls-1" d="M182.29,62.65a1.82,1.82,0,0,1-1.86-1.88,1.8,1.8,0,0,1,1.83-1.87,2.13,2.13,0,0,1,1.45.6l.48-.71a2.79,2.79,0,0,0-2-.76,2.75,2.75,0,1,0,0,5.5,3,3,0,0,0,2.09-.84l-.4-.74A2.38,2.38,0,0,1,182.29,62.65Z"/><polygon class="cls-1" points="190.76 60.65 192.51 58.15 191.37 58.15 189.94 60.27 189.21 60.27 189.21 58.15 188.2 58.15 188.2 63.4 189.21 63.4 189.21 61.13 189.96 61.13 191.53 63.4 192.72 63.4 190.76 60.67 190.76 60.65"/><path class="cls-1" d="M198.26,58a3.34,3.34,0,0,0-2,.62l.4.74a2.59,2.59,0,0,1,1.48-.51A1,1,0,0,1,199.33,60v.1h-.27c-1.09,0-3.13.19-3.13,1.84a1.61,1.61,0,0,0,1.75,1.56,1.93,1.93,0,0,0,1.72-1.07h0a2.61,2.61,0,0,0,0,.41v.53h.94V60.08A1.86,1.86,0,0,0,198.26,58Zm1.07,3a1.58,1.58,0,0,1-1.41,1.67.89.89,0,0,1-1-.84c0-1,1.39-1,2.14-1h.26Z"/><path class="cls-1" d="M204.4,59.8a1.57,1.57,0,0,0,1.14,1.53h0a2.45,2.45,0,0,0-.24.32l-1.21,1.74h1.11l1.28-1.9h.89v1.9h1V58.15h-2.09C205.17,58.15,204.4,58.72,204.4,59.8Zm3-.95v1.92h-.88a1,1,0,0,1-1.07-1c0-.67.43-.94,1.11-.94Z"/><path class="cls-1" d="M219.54,61.28c-.17.25-.42.62-.47.71h0a6.93,6.93,0,0,0,0-.71V58.15h-1V63.4h1l2.27-3.13a7.92,7.92,0,0,0,.45-.7h0c0,.09,0,.45,0,.7V63.4h1V58.15h-1Z"/><polygon class="cls-1" points="232.52 63.4 233.52 63.4 233.52 59.01 236.1 59.01 236.1 63.4 237.1 63.4 237.1 58.15 232.52 58.15 232.52 63.4"/><path class="cls-1" d="M244.15,58a1.93,1.93,0,0,0-1.77,1h0a2.49,2.49,0,0,0,0-.39v-.47h-.93v7.33h1V63.09a2.46,2.46,0,0,0,0-.46h0a2,2,0,0,0,1.63.9,2.46,2.46,0,0,0,2.38-2.75C246.45,59.15,245.57,58,244.15,58Zm-.23,4.62a1.65,1.65,0,0,1-1.49-1.85c0-1.33.73-1.89,1.52-1.89s1.48.74,1.48,1.88S244.75,62.65,243.92,62.65Z"/><path class="cls-1" d="M253,58a2.75,2.75,0,1,0,2.83,2.74A2.73,2.73,0,0,0,253,58Zm0,4.62a1.88,1.88,0,1,1,1.81-1.88A1.81,1.81,0,0,1,253,62.65Z"/><polygon class="cls-1" points="262.38 60.65 264.13 58.15 262.99 58.15 261.56 60.27 260.82 60.27 260.82 58.15 259.82 58.15 259.82 63.4 260.82 63.4 260.82 61.13 261.58 61.13 263.15 63.4 264.34 63.4 262.38 60.67 262.38 60.65"/><path class="cls-1" d="M269.88,58a3.34,3.34,0,0,0-2,.62l.4.74a2.56,2.56,0,0,1,1.47-.51A1,1,0,0,1,271,60v.1h-.27c-1.09,0-3.14.19-3.14,1.84a1.62,1.62,0,0,0,1.76,1.56A2,2,0,0,0,271,62.46h0a2.61,2.61,0,0,0,0,.41v.53H272V60.08A1.87,1.87,0,0,0,269.88,58Zm1.07,3a1.58,1.58,0,0,1-1.42,1.67.88.88,0,0,1-1-.84c0-1,1.39-1,2.14-1H271Z"/><polygon class="cls-1" points="275.6 59.01 277.43 59.01 277.43 63.4 278.42 63.4 278.42 59.01 280.26 59.01 280.26 58.15 275.6 58.15 275.6 59.01"/><path class="cls-1" d="M292.61,60.66h0a1.22,1.22,0,0,0,.75-1.15c0-.88-.7-1.35-1.75-1.35h-2.17V63.4h2.24c1.14,0,1.93-.52,1.93-1.49A1.24,1.24,0,0,0,292.61,60.66Zm-2.17-1.81h1c.63,0,.93.25.93.72s-.3.8-.9.8h-1Zm1.08,3.85h-1.08V61.05h1.07c.7,0,1.08.31,1.08.83S292.25,62.7,291.52,62.7Z"/><path class="cls-1" d="M299.92,58a2.58,2.58,0,0,0-2.63,2.75,2.69,2.69,0,0,0,2.79,2.75,3.12,3.12,0,0,0,2-.75l-.42-.74a2.36,2.36,0,0,1-1.55.61,1.73,1.73,0,0,1-1.8-1.74h3.81a2.09,2.09,0,0,0,.05-.42A2.24,2.24,0,0,0,299.92,58Zm-1.55,2.16a1.52,1.52,0,0,1,1.53-1.39,1.28,1.28,0,0,1,1.28,1.39Z"/><path class="cls-1" d="M306.82,59.77c0,1.9-.41,2.67-1.18,2.78v.9c1.54-.08,2.15-1.3,2.15-3.68V59h1.54V63.4h1V58.15h-3.52Z"/><path class="cls-1" d="M317.17,58A2.75,2.75,0,1,0,320,60.77,2.74,2.74,0,0,0,317.17,58Zm0,4.62A1.88,1.88,0,1,1,319,60.77,1.81,1.81,0,0,1,317.18,62.65Z"/><path class="cls-1" d="M326.56,62.65a1.82,1.82,0,0,1-1.86-1.88,1.8,1.8,0,0,1,1.83-1.87,2.13,2.13,0,0,1,1.45.6l.48-.71a2.79,2.79,0,0,0-2-.76,2.75,2.75,0,1,0,0,5.5,3,3,0,0,0,2.09-.84l-.4-.74A2.38,2.38,0,0,1,326.56,62.65Z"/><path class="cls-1" d="M333.89,61.28c-.17.25-.42.62-.47.71h0a6.93,6.93,0,0,0,0-.71V58.15h-1V63.4h1l2.27-3.13a7.92,7.92,0,0,0,.45-.7h0c0,.09,0,.45,0,.7V63.4h1V58.15h-1Z"/><polygon class="cls-1" points="341.47 63.4 342.48 63.4 342.48 59.01 345.05 59.01 345.05 63.4 346.06 63.4 346.06 58.15 341.47 58.15 341.47 63.4"/><path class="cls-1" d="M352.71,58a2.58,2.58,0,0,0-2.64,2.75,2.69,2.69,0,0,0,2.79,2.75,3.14,3.14,0,0,0,2-.75l-.43-.74a2.34,2.34,0,0,1-1.55.61,1.73,1.73,0,0,1-1.8-1.74h3.82a3.13,3.13,0,0,0,0-.42A2.24,2.24,0,0,0,352.71,58Zm-1.56,2.16a1.53,1.53,0,0,1,1.54-1.39A1.28,1.28,0,0,1,354,60.19Z"/><path class="cls-1" d="M363.35,58.15H359.8v1a6.31,6.31,0,0,1-.82,3.45h-.64v2.08h.94V63.4h3.89v1.25h.93V62.57h-.75Zm-1,4.42H360a6.62,6.62,0,0,0,.75-3.32V59h1.57Z"/><path class="cls-1" d="M370.37,58a2.75,2.75,0,1,0,2.83,2.74A2.73,2.73,0,0,0,370.37,58Zm0,4.62a1.88,1.88,0,1,1,1.81-1.88A1.81,1.81,0,0,1,370.38,62.65Z"/><path class="cls-1" d="M380.39,60.66h0a1.22,1.22,0,0,0,.75-1.15c0-.88-.7-1.35-1.76-1.35h-2.17V63.4h2.24c1.15,0,1.93-.52,1.93-1.49A1.24,1.24,0,0,0,380.39,60.66Zm-2.17-1.81h.95c.64,0,.94.25.94.72s-.3.8-.9.8h-1Zm1.08,3.85h-1.08V61.05h1.07c.69,0,1.08.31,1.08.83S380,62.7,379.3,62.7Z"/></svg>